<svg width="1440" height="759" viewBox="0 0 1440 759" fill="none" xmlns="http://www.w3.org/2000/svg">
<rect x="-9" width="1458" height="759" fill="url(#paint0_linear_72_236)" fill-opacity="0.8"/>
<path fill-rule="evenodd" clip-rule="evenodd" d="M238.821 90.176C239.667 86.0259 239.98 81.1727 241.741 77.1254C244.516 76.4698 254.938 73.6547 257.225 72.8012C251.601 72.3965 245.627 72.4228 240.159 71.4655C239.226 69.0047 238.85 66.4571 237.894 64.0121C237.283 62.4495 236.324 60.9132 235.979 59.3129C234.726 63.678 233.748 68.0815 232.831 72.478C227.183 73.3919 221.396 74.9043 216.001 76.3189C221.627 77.3425 227.474 76.9804 233.141 77.6898C234.795 82.2851 236.941 86.2357 238.821 90.176Z" stroke="#6B6920" stroke-width="1.2" stroke-miterlimit="1.5" stroke-linecap="round" stroke-linejoin="round"/>
<path d="M220.935 64.9116C223.1 66.1394 225.158 67.4241 227.053 68.8129" stroke="#6B6920" stroke-width="1.2" stroke-miterlimit="1.5" stroke-linecap="round" stroke-linejoin="round"/>
<path d="M229.718 80.7115C228.547 81.7861 227.447 82.9303 226.18 83.9622" stroke="#6B6920" stroke-width="1.2" stroke-miterlimit="1.5" stroke-linecap="round" stroke-linejoin="round"/>
<path d="M245.056 80.0931C247.247 81.1568 249.468 82.5799 251.229 83.921" stroke="#6B6920" stroke-width="1.2" stroke-miterlimit="1.5" stroke-linecap="round" stroke-linejoin="round"/>
<path d="M243.604 68.4353C245.219 67.0329 246.871 65.6494 248.573 64.3011" stroke="#6B6920" stroke-width="1.2" stroke-miterlimit="1.5" stroke-linecap="round" stroke-linejoin="round"/>
<path fill-rule="evenodd" clip-rule="evenodd" d="M877.428 653C878.274 648.85 878.586 643.997 880.347 639.95C883.122 639.294 893.544 636.479 895.832 635.625C890.208 635.221 884.234 635.247 878.766 634.29C877.833 631.829 877.457 629.281 876.501 626.836C875.89 625.274 874.931 623.737 874.585 622.137C873.333 626.502 872.355 630.906 871.438 635.302C865.79 636.216 860.003 637.728 854.607 639.143C860.234 640.167 866.081 639.805 871.748 640.514C873.401 645.109 875.548 649.06 877.428 653Z" stroke="#6B6920" stroke-width="1.2" stroke-miterlimit="1.5" stroke-linecap="round" stroke-linejoin="round"/>
<path d="M859.542 627.736C861.706 628.963 863.764 630.248 865.66 631.637" stroke="#6B6920" stroke-width="1.2" stroke-miterlimit="1.5" stroke-linecap="round" stroke-linejoin="round"/>
<path d="M868.325 643.536C867.154 644.61 866.054 645.754 864.787 646.786" stroke="#6B6920" stroke-width="1.2" stroke-miterlimit="1.5" stroke-linecap="round" stroke-linejoin="round"/>
<path d="M883.663 642.917C885.853 643.981 888.075 645.404 889.836 646.745" stroke="#6B6920" stroke-width="1.2" stroke-miterlimit="1.5" stroke-linecap="round" stroke-linejoin="round"/>
<path d="M882.211 631.259C883.825 629.857 885.478 628.473 887.18 627.125" stroke="#6B6920" stroke-width="1.2" stroke-miterlimit="1.5" stroke-linecap="round" stroke-linejoin="round"/>
<path fill-rule="evenodd" clip-rule="evenodd" d="M1338.41 524.787C1339.25 520.636 1339.57 515.783 1341.33 511.736C1344.1 511.08 1354.53 508.265 1356.81 507.412C1351.19 507.007 1345.21 507.033 1339.75 506.076C1338.81 503.615 1338.44 501.068 1337.48 498.623C1336.87 497.06 1335.91 495.524 1335.57 493.923C1334.31 498.289 1333.34 502.692 1332.42 507.089C1326.77 508.002 1320.98 509.515 1315.59 510.929C1321.21 511.953 1327.06 511.591 1332.73 512.3C1334.38 516.896 1336.53 520.846 1338.41 524.787Z" stroke="#6B6920" stroke-width="1.2" stroke-miterlimit="1.5" stroke-linecap="round" stroke-linejoin="round"/>
<path d="M1320.52 499.522C1322.69 500.75 1324.75 502.035 1326.64 503.423" stroke="#6B6920" stroke-width="1.2" stroke-miterlimit="1.5" stroke-linecap="round" stroke-linejoin="round"/>
<path d="M1329.31 515.322C1328.14 516.397 1327.03 517.541 1325.77 518.573" stroke="#6B6920" stroke-width="1.2" stroke-miterlimit="1.5" stroke-linecap="round" stroke-linejoin="round"/>
<path d="M1344.64 514.704C1346.83 515.767 1349.06 517.19 1350.82 518.532" stroke="#6B6920" stroke-width="1.2" stroke-miterlimit="1.5" stroke-linecap="round" stroke-linejoin="round"/>
<path d="M1343.19 503.046C1344.81 501.644 1346.46 500.26 1348.16 498.912" stroke="#6B6920" stroke-width="1.2" stroke-miterlimit="1.5" stroke-linecap="round" stroke-linejoin="round"/>
<path fill-rule="evenodd" clip-rule="evenodd" d="M1262.82 77.8631C1263.67 73.713 1263.98 68.8598 1265.74 64.8126C1268.52 64.1569 1278.94 61.3418 1281.22 60.4884C1275.6 60.0837 1269.63 60.1099 1264.16 59.1526C1263.23 56.6918 1262.85 54.1443 1261.89 51.6993C1261.28 50.1366 1260.32 48.6004 1259.98 47C1258.73 51.3651 1257.75 55.7686 1256.83 60.1651C1251.18 61.079 1245.4 62.5914 1240 64.006C1245.63 65.0297 1251.47 64.6675 1257.14 65.3769C1258.79 69.9723 1260.94 73.9228 1262.82 77.8631Z" stroke="#6B6920" stroke-width="1.2" stroke-miterlimit="1.5" stroke-linecap="round" stroke-linejoin="round"/>
<path d="M1244.93 52.5987C1247.1 53.8266 1249.16 55.1113 1251.05 56.5" stroke="#6B6920" stroke-width="1.2" stroke-miterlimit="1.5" stroke-linecap="round" stroke-linejoin="round"/>
<path d="M1253.72 68.3986C1252.55 69.4731 1251.45 70.6174 1250.18 71.6493" stroke="#6B6920" stroke-width="1.2" stroke-miterlimit="1.5" stroke-linecap="round" stroke-linejoin="round"/>
<path d="M1269.06 67.7803C1271.25 68.8439 1273.47 70.267 1275.23 71.6082" stroke="#6B6920" stroke-width="1.2" stroke-miterlimit="1.5" stroke-linecap="round" stroke-linejoin="round"/>
<path d="M1267.6 56.1223C1269.22 54.72 1270.87 53.3364 1272.57 51.9882" stroke="#6B6920" stroke-width="1.2" stroke-miterlimit="1.5" stroke-linecap="round" stroke-linejoin="round"/>
<path d="M156.72 652.689C156.959 648.418 157.391 634.862 170.282 634.368C159.795 632.369 159.434 629.275 160.795 616C157.39 623.155 158.641 633.447 143.09 633.48C149.233 634.147 150.456 634.477 152.365 636.04C156.478 639.409 156.015 647.56 156.72 652.689Z" stroke="#6B6920" stroke-width="1.2" stroke-miterlimit="1.5" stroke-linecap="round" stroke-linejoin="round"/>
<path d="M146.188 626.158C145.212 625.42 144.027 624.789 143.018 624.069" stroke="#6B6920" stroke-width="1.2" stroke-miterlimit="1.5" stroke-linecap="round" stroke-linejoin="round"/>
<path d="M149.511 624.932C147.815 623.23 146.97 621.206 145.562 619.406" stroke="#6B6920" stroke-width="1.2" stroke-miterlimit="1.5" stroke-linecap="round" stroke-linejoin="round"/>
<path d="M166.718 642.183C167.392 643.145 168.157 644.095 168.932 645.027" stroke="#6B6920" stroke-width="1.2" stroke-miterlimit="1.5" stroke-linecap="round" stroke-linejoin="round"/>
<path d="M168.627 641.089C170.874 642.593 172.975 644.179 175.215 645.686" stroke="#6B6920" stroke-width="1.2" stroke-miterlimit="1.5" stroke-linecap="round" stroke-linejoin="round"/>
<path d="M169.934 626.784C171.321 626.142 172.693 625.519 174.134 624.924" stroke="#6B6920" stroke-width="1.2" stroke-miterlimit="1.5" stroke-linecap="round" stroke-linejoin="round"/>
<path d="M172.362 628.907C173.651 628.707 175.067 628.471 176.292 628.135" stroke="#6B6920" stroke-width="1.2" stroke-miterlimit="1.5" stroke-linecap="round" stroke-linejoin="round"/>
<path d="M139.948 638.877C137.983 639.548 135.926 640.124 134 640.836" stroke="#6B6920" stroke-width="1.2" stroke-miterlimit="1.5" stroke-linecap="round" stroke-linejoin="round"/>
<path d="M142.185 641.431C140.794 642.099 139.353 642.709 137.914 643.334" stroke="#6B6920" stroke-width="1.2" stroke-miterlimit="1.5" stroke-linecap="round" stroke-linejoin="round"/>
<path d="M1377.43 164.382C1377.67 160.111 1378.1 146.555 1390.99 146.061C1380.5 144.062 1380.14 140.968 1381.5 127.693C1378.1 134.849 1379.35 145.14 1363.8 145.173C1369.94 145.84 1371.16 146.17 1373.07 147.734C1377.19 151.103 1376.72 159.254 1377.43 164.382Z" stroke="#6B6920" stroke-width="1.2" stroke-miterlimit="1.5" stroke-linecap="round" stroke-linejoin="round"/>
<path d="M1366.9 137.851C1365.92 137.113 1364.73 136.483 1363.73 135.763" stroke="#6B6920" stroke-width="1.2" stroke-miterlimit="1.5" stroke-linecap="round" stroke-linejoin="round"/>
<path d="M1370.22 136.625C1368.52 134.923 1367.68 132.899 1366.27 131.099" stroke="#6B6920" stroke-width="1.2" stroke-miterlimit="1.5" stroke-linecap="round" stroke-linejoin="round"/>
<path d="M1387.43 153.877C1388.1 154.839 1388.86 155.788 1389.64 156.72" stroke="#6B6920" stroke-width="1.2" stroke-miterlimit="1.5" stroke-linecap="round" stroke-linejoin="round"/>
<path d="M1389.33 152.783C1391.58 154.287 1393.68 155.873 1395.92 157.379" stroke="#6B6920" stroke-width="1.2" stroke-miterlimit="1.5" stroke-linecap="round" stroke-linejoin="round"/>
<path d="M1390.64 138.478C1392.03 137.835 1393.4 137.212 1394.84 136.618" stroke="#6B6920" stroke-width="1.2" stroke-miterlimit="1.5" stroke-linecap="round" stroke-linejoin="round"/>
<path d="M1393.07 140.6C1394.36 140.401 1395.78 140.164 1397 139.829" stroke="#6B6920" stroke-width="1.2" stroke-miterlimit="1.5" stroke-linecap="round" stroke-linejoin="round"/>
<path d="M1360.66 150.571C1358.69 151.242 1356.63 151.818 1354.71 152.53" stroke="#6B6920" stroke-width="1.2" stroke-miterlimit="1.5" stroke-linecap="round" stroke-linejoin="round"/>
<path d="M1362.89 153.124C1361.5 153.792 1360.06 154.402 1358.62 155.027" stroke="#6B6920" stroke-width="1.2" stroke-miterlimit="1.5" stroke-linecap="round" stroke-linejoin="round"/>
<path d="M101.834 71.7988C102.022 68.4465 102.36 57.8053 112.479 57.4177C104.248 55.8489 103.965 53.4201 105.032 43C102.36 48.6165 103.341 56.6949 91.1348 56.7207C95.9569 57.2445 96.9172 57.5033 98.4155 58.7305C101.644 61.3751 101.28 67.7731 101.834 71.7988Z" stroke="#6B6920" stroke-width="1.2" stroke-miterlimit="1.5" stroke-linecap="round" stroke-linejoin="round"/>
<path d="M93.5667 50.9734C92.8007 50.3939 91.8704 49.899 91.0789 49.334" stroke="#6B6920" stroke-width="1.2" stroke-miterlimit="1.5" stroke-linecap="round" stroke-linejoin="round"/>
<path d="M96.1752 50.0111C94.8439 48.675 94.1811 47.0865 93.0752 45.6732" stroke="#6B6920" stroke-width="1.2" stroke-miterlimit="1.5" stroke-linecap="round" stroke-linejoin="round"/>
<path d="M109.682 63.5526C110.211 64.3077 110.811 65.0528 111.419 65.7846" stroke="#6B6920" stroke-width="1.2" stroke-miterlimit="1.5" stroke-linecap="round" stroke-linejoin="round"/>
<path d="M111.18 62.6938C112.944 63.8744 114.593 65.1192 116.351 66.3017" stroke="#6B6920" stroke-width="1.2" stroke-miterlimit="1.5" stroke-linecap="round" stroke-linejoin="round"/>
<path d="M112.206 51.465C113.295 50.9609 114.372 50.4718 115.503 50.005" stroke="#6B6920" stroke-width="1.2" stroke-miterlimit="1.5" stroke-linecap="round" stroke-linejoin="round"/>
<path d="M114.112 53.1313C115.124 52.9744 116.235 52.7891 117.197 52.5255" stroke="#6B6920" stroke-width="1.2" stroke-miterlimit="1.5" stroke-linecap="round" stroke-linejoin="round"/>
<path d="M88.6687 60.9574C87.1268 61.4841 85.5115 61.9362 84 62.4953" stroke="#6B6920" stroke-width="1.2" stroke-miterlimit="1.5" stroke-linecap="round" stroke-linejoin="round"/>
<path d="M90.4247 62.9615C89.3332 63.4862 88.202 63.9647 87.0725 64.4554" stroke="#6B6920" stroke-width="1.2" stroke-miterlimit="1.5" stroke-linecap="round" stroke-linejoin="round"/>
<path fill-rule="evenodd" clip-rule="evenodd" d="M1189.91 610.655C1190.06 607.096 1187.74 603.548 1182.63 601.406C1180.65 600.577 1178.31 600.275 1176 600.024C1185.37 599.824 1188.63 593.723 1189.93 589C1189.48 593.236 1193.04 597.811 1200.32 598.233C1193.07 600.884 1190.59 605.748 1189.91 610.655Z" stroke="#6B6920" stroke-width="2" stroke-miterlimit="1.5" stroke-linecap="round" stroke-linejoin="round"/>
<path fill-rule="evenodd" clip-rule="evenodd" d="M954.913 69.655C955.064 66.0965 952.735 62.5478 947.628 60.4061C945.65 59.5767 943.307 59.2748 941 59.0238C950.373 58.8239 953.628 52.7229 954.932 48C954.479 52.2359 958.04 56.8112 965.318 57.2334C958.073 59.8839 955.587 64.7476 954.913 69.655Z" stroke="#6B6920" stroke-width="2" stroke-miterlimit="1.5" stroke-linecap="round" stroke-linejoin="round"/>
<path fill-rule="evenodd" clip-rule="evenodd" d="M26.9129 208.655C27.0643 205.096 24.735 201.548 19.6278 199.406C17.6501 198.577 15.3073 198.275 13 198.024C22.3735 197.824 25.6277 191.723 26.9319 187C26.479 191.236 30.0401 195.811 37.3178 196.233C30.0731 198.884 27.5866 203.748 26.9129 208.655Z" stroke="#6B6920" stroke-width="2" stroke-miterlimit="1.5" stroke-linecap="round" stroke-linejoin="round"/>
<defs>
<linearGradient id="paint0_linear_72_236" x1="720" y1="-59.3114" x2="720" y2="665.399" gradientUnits="userSpaceOnUse">
<stop stop-color="#101B13"/>
<stop offset="1" stop-color="#101B13" stop-opacity="0"/>
</linearGradient>
</defs>
</svg>
