<svg width="1386" height="612" viewBox="0 0 1386 612" fill="none" xmlns="http://www.w3.org/2000/svg">
<path fill-rule="evenodd" clip-rule="evenodd" d="M226.821 48.176C227.667 44.0259 227.98 39.1727 229.741 35.1254C232.516 34.4698 242.938 31.6547 245.225 30.8012C239.601 30.3965 233.627 30.4228 228.159 29.4655C227.226 27.0047 226.85 24.4571 225.894 22.0121C225.283 20.4495 224.324 18.9132 223.979 17.3129C222.726 21.678 221.748 26.0815 220.831 30.478C215.183 31.3919 209.396 32.9043 204.001 34.3189C209.627 35.3425 215.474 34.9804 221.141 35.6898C222.795 40.2851 224.941 44.2357 226.821 48.176Z" stroke="#6B6920" stroke-width="1.2" stroke-miterlimit="1.5" stroke-linecap="round" stroke-linejoin="round"/>
<path d="M208.935 22.9116C211.1 24.1394 213.158 25.4241 215.053 26.8129" stroke="#6B6920" stroke-width="1.2" stroke-miterlimit="1.5" stroke-linecap="round" stroke-linejoin="round"/>
<path d="M217.718 38.7115C216.547 39.7861 215.447 40.9303 214.18 41.9622" stroke="#6B6920" stroke-width="1.2" stroke-miterlimit="1.5" stroke-linecap="round" stroke-linejoin="round"/>
<path d="M233.056 38.0931C235.247 39.1568 237.468 40.5799 239.229 41.921" stroke="#6B6920" stroke-width="1.2" stroke-miterlimit="1.5" stroke-linecap="round" stroke-linejoin="round"/>
<path d="M231.604 26.4353C233.219 25.0329 234.871 23.6494 236.573 22.3011" stroke="#6B6920" stroke-width="1.2" stroke-miterlimit="1.5" stroke-linecap="round" stroke-linejoin="round"/>
<path fill-rule="evenodd" clip-rule="evenodd" d="M865.428 611C866.274 606.85 866.586 601.997 868.347 597.95C871.122 597.294 881.544 594.479 883.832 593.625C878.208 593.221 872.234 593.247 866.766 592.29C865.833 589.829 865.457 587.281 864.501 584.836C863.89 583.274 862.931 581.737 862.585 580.137C861.333 584.502 860.355 588.906 859.438 593.302C853.79 594.216 848.003 595.728 842.607 597.143C848.234 598.167 854.081 597.805 859.748 598.514C861.401 603.109 863.548 607.06 865.428 611Z" stroke="#6B6920" stroke-width="1.2" stroke-miterlimit="1.5" stroke-linecap="round" stroke-linejoin="round"/>
<path d="M847.542 585.736C849.706 586.963 851.764 588.248 853.66 589.637" stroke="#6B6920" stroke-width="1.2" stroke-miterlimit="1.5" stroke-linecap="round" stroke-linejoin="round"/>
<path d="M856.325 601.536C855.154 602.61 854.054 603.754 852.787 604.786" stroke="#6B6920" stroke-width="1.2" stroke-miterlimit="1.5" stroke-linecap="round" stroke-linejoin="round"/>
<path d="M871.663 600.917C873.853 601.981 876.075 603.404 877.836 604.745" stroke="#6B6920" stroke-width="1.2" stroke-miterlimit="1.5" stroke-linecap="round" stroke-linejoin="round"/>
<path d="M870.211 589.259C871.825 587.857 873.478 586.473 875.18 585.125" stroke="#6B6920" stroke-width="1.2" stroke-miterlimit="1.5" stroke-linecap="round" stroke-linejoin="round"/>
<path fill-rule="evenodd" clip-rule="evenodd" d="M1326.41 482.787C1327.25 478.636 1327.57 473.783 1329.33 469.736C1332.1 469.08 1342.53 466.265 1344.81 465.412C1339.19 465.007 1333.21 465.033 1327.75 464.076C1326.81 461.615 1326.44 459.068 1325.48 456.623C1324.87 455.06 1323.91 453.524 1323.57 451.923C1322.31 456.289 1321.34 460.692 1320.42 465.089C1314.77 466.002 1308.98 467.515 1303.59 468.929C1309.21 469.953 1315.06 469.591 1320.73 470.3C1322.38 474.896 1324.53 478.846 1326.41 482.787Z" stroke="#6B6920" stroke-width="1.2" stroke-miterlimit="1.5" stroke-linecap="round" stroke-linejoin="round"/>
<path d="M1308.52 457.522C1310.69 458.75 1312.75 460.035 1314.64 461.423" stroke="#6B6920" stroke-width="1.2" stroke-miterlimit="1.5" stroke-linecap="round" stroke-linejoin="round"/>
<path d="M1317.31 473.322C1316.14 474.397 1315.03 475.541 1313.77 476.573" stroke="#6B6920" stroke-width="1.2" stroke-miterlimit="1.5" stroke-linecap="round" stroke-linejoin="round"/>
<path d="M1332.64 472.704C1334.83 473.767 1337.06 475.19 1338.82 476.532" stroke="#6B6920" stroke-width="1.2" stroke-miterlimit="1.5" stroke-linecap="round" stroke-linejoin="round"/>
<path d="M1331.19 461.046C1332.81 459.644 1334.46 458.26 1336.16 456.912" stroke="#6B6920" stroke-width="1.2" stroke-miterlimit="1.5" stroke-linecap="round" stroke-linejoin="round"/>
<path fill-rule="evenodd" clip-rule="evenodd" d="M1250.82 35.8631C1251.67 31.713 1251.98 26.8598 1253.74 22.8126C1256.52 22.1569 1266.94 19.3418 1269.22 18.4884C1263.6 18.0837 1257.63 18.1099 1252.16 17.1526C1251.23 14.6918 1250.85 12.1443 1249.89 9.69927C1249.28 8.13662 1248.32 6.60036 1247.98 5C1246.73 9.36514 1245.75 13.7686 1244.83 18.1651C1239.18 19.079 1233.4 20.5914 1228 22.006C1233.63 23.0297 1239.47 22.6675 1245.14 23.3769C1246.79 27.9723 1248.94 31.9228 1250.82 35.8631Z" stroke="#6B6920" stroke-width="1.2" stroke-miterlimit="1.5" stroke-linecap="round" stroke-linejoin="round"/>
<path d="M1232.93 10.5987C1235.1 11.8266 1237.16 13.1113 1239.05 14.5" stroke="#6B6920" stroke-width="1.2" stroke-miterlimit="1.5" stroke-linecap="round" stroke-linejoin="round"/>
<path d="M1241.72 26.3986C1240.55 27.4731 1239.45 28.6174 1238.18 29.6493" stroke="#6B6920" stroke-width="1.2" stroke-miterlimit="1.5" stroke-linecap="round" stroke-linejoin="round"/>
<path d="M1257.06 25.7803C1259.25 26.8439 1261.47 28.267 1263.23 29.6082" stroke="#6B6920" stroke-width="1.2" stroke-miterlimit="1.5" stroke-linecap="round" stroke-linejoin="round"/>
<path d="M1255.6 14.1223C1257.22 12.72 1258.87 11.3364 1260.57 9.98816" stroke="#6B6920" stroke-width="1.2" stroke-miterlimit="1.5" stroke-linecap="round" stroke-linejoin="round"/>
<path d="M144.72 610.689C144.959 606.418 145.391 592.862 158.282 592.368C147.795 590.369 147.434 587.275 148.795 574C145.39 581.155 146.641 591.447 131.09 591.48C137.233 592.147 138.456 592.477 140.365 594.04C144.478 597.409 144.015 605.56 144.72 610.689Z" stroke="#6B6920" stroke-width="1.2" stroke-miterlimit="1.5" stroke-linecap="round" stroke-linejoin="round"/>
<path d="M134.188 584.158C133.212 583.42 132.027 582.789 131.018 582.069" stroke="#6B6920" stroke-width="1.2" stroke-miterlimit="1.5" stroke-linecap="round" stroke-linejoin="round"/>
<path d="M137.511 582.932C135.815 581.23 134.97 579.206 133.562 577.406" stroke="#6B6920" stroke-width="1.2" stroke-miterlimit="1.5" stroke-linecap="round" stroke-linejoin="round"/>
<path d="M154.718 600.183C155.392 601.145 156.157 602.095 156.932 603.027" stroke="#6B6920" stroke-width="1.2" stroke-miterlimit="1.5" stroke-linecap="round" stroke-linejoin="round"/>
<path d="M156.627 599.089C158.874 600.593 160.975 602.179 163.215 603.686" stroke="#6B6920" stroke-width="1.2" stroke-miterlimit="1.5" stroke-linecap="round" stroke-linejoin="round"/>
<path d="M157.934 584.784C159.321 584.142 160.693 583.519 162.134 582.924" stroke="#6B6920" stroke-width="1.2" stroke-miterlimit="1.5" stroke-linecap="round" stroke-linejoin="round"/>
<path d="M160.362 586.907C161.651 586.707 163.067 586.471 164.292 586.135" stroke="#6B6920" stroke-width="1.2" stroke-miterlimit="1.5" stroke-linecap="round" stroke-linejoin="round"/>
<path d="M127.948 596.877C125.983 597.548 123.926 598.124 122 598.836" stroke="#6B6920" stroke-width="1.2" stroke-miterlimit="1.5" stroke-linecap="round" stroke-linejoin="round"/>
<path d="M130.185 599.431C128.794 600.099 127.353 600.709 125.914 601.334" stroke="#6B6920" stroke-width="1.2" stroke-miterlimit="1.5" stroke-linecap="round" stroke-linejoin="round"/>
<path d="M1365.43 122.382C1365.67 118.111 1366.1 104.555 1378.99 104.061C1368.5 102.062 1368.14 98.9682 1369.5 85.6934C1366.1 92.8486 1367.35 103.14 1351.8 103.173C1357.94 103.84 1359.16 104.17 1361.07 105.734C1365.19 109.103 1364.72 117.254 1365.43 122.382Z" stroke="#6B6920" stroke-width="1.2" stroke-miterlimit="1.5" stroke-linecap="round" stroke-linejoin="round"/>
<path d="M1354.9 95.8512C1353.92 95.113 1352.73 94.4826 1351.73 93.7627" stroke="#6B6920" stroke-width="1.2" stroke-miterlimit="1.5" stroke-linecap="round" stroke-linejoin="round"/>
<path d="M1358.22 94.6253C1356.52 92.9231 1355.68 90.8995 1354.27 89.0989" stroke="#6B6920" stroke-width="1.2" stroke-miterlimit="1.5" stroke-linecap="round" stroke-linejoin="round"/>
<path d="M1375.43 111.877C1376.1 112.839 1376.86 113.788 1377.64 114.72" stroke="#6B6920" stroke-width="1.2" stroke-miterlimit="1.5" stroke-linecap="round" stroke-linejoin="round"/>
<path d="M1377.33 110.783C1379.58 112.287 1381.68 113.873 1383.92 115.379" stroke="#6B6920" stroke-width="1.2" stroke-miterlimit="1.5" stroke-linecap="round" stroke-linejoin="round"/>
<path d="M1378.64 96.4775C1380.03 95.8354 1381.4 95.2123 1382.84 94.6176" stroke="#6B6920" stroke-width="1.2" stroke-miterlimit="1.5" stroke-linecap="round" stroke-linejoin="round"/>
<path d="M1381.07 98.6003C1382.36 98.4005 1383.78 98.1644 1385 97.8286" stroke="#6B6920" stroke-width="1.2" stroke-miterlimit="1.5" stroke-linecap="round" stroke-linejoin="round"/>
<path d="M1348.66 108.571C1346.69 109.242 1344.63 109.818 1342.71 110.53" stroke="#6B6920" stroke-width="1.2" stroke-miterlimit="1.5" stroke-linecap="round" stroke-linejoin="round"/>
<path d="M1350.89 111.124C1349.5 111.792 1348.06 112.402 1346.62 113.027" stroke="#6B6920" stroke-width="1.2" stroke-miterlimit="1.5" stroke-linecap="round" stroke-linejoin="round"/>
<path d="M89.8336 29.7988C90.0215 26.4465 90.3605 15.8053 100.479 15.4177C92.248 13.8489 91.9646 11.4201 93.0322 1C90.3601 6.61646 91.3414 14.6949 79.1348 14.7207C83.9569 15.2445 84.9172 15.5033 86.4155 16.7305C89.6441 19.3751 89.2804 25.7731 89.8336 29.7988Z" stroke="#6B6920" stroke-width="1.2" stroke-miterlimit="1.5" stroke-linecap="round" stroke-linejoin="round"/>
<path d="M81.5667 8.97336C80.8007 8.39387 79.8704 7.89904 79.0789 7.33398" stroke="#6B6920" stroke-width="1.2" stroke-miterlimit="1.5" stroke-linecap="round" stroke-linejoin="round"/>
<path d="M84.1752 8.01112C82.8439 6.67495 82.1811 5.08652 81.0752 3.67316" stroke="#6B6920" stroke-width="1.2" stroke-miterlimit="1.5" stroke-linecap="round" stroke-linejoin="round"/>
<path d="M97.6819 21.5526C98.2112 22.3077 98.8113 23.0528 99.4194 23.7846" stroke="#6B6920" stroke-width="1.2" stroke-miterlimit="1.5" stroke-linecap="round" stroke-linejoin="round"/>
<path d="M99.1804 20.6938C100.944 21.8744 102.593 23.1192 104.351 24.3017" stroke="#6B6920" stroke-width="1.2" stroke-miterlimit="1.5" stroke-linecap="round" stroke-linejoin="round"/>
<path d="M100.206 9.465C101.295 8.96094 102.372 8.47183 103.503 8.005" stroke="#6B6920" stroke-width="1.2" stroke-miterlimit="1.5" stroke-linecap="round" stroke-linejoin="round"/>
<path d="M102.112 11.1313C103.124 10.9744 104.235 10.7891 105.197 10.5255" stroke="#6B6920" stroke-width="1.2" stroke-miterlimit="1.5" stroke-linecap="round" stroke-linejoin="round"/>
<path d="M76.6687 18.9574C75.1268 19.4841 73.5115 19.9362 72 20.4953" stroke="#6B6920" stroke-width="1.2" stroke-miterlimit="1.5" stroke-linecap="round" stroke-linejoin="round"/>
<path d="M78.4247 20.9615C77.3332 21.4862 76.202 21.9647 75.0725 22.4554" stroke="#6B6920" stroke-width="1.2" stroke-miterlimit="1.5" stroke-linecap="round" stroke-linejoin="round"/>
<path fill-rule="evenodd" clip-rule="evenodd" d="M1177.91 568.655C1178.06 565.096 1175.74 561.548 1170.63 559.406C1168.65 558.577 1166.31 558.275 1164 558.024C1173.37 557.824 1176.63 551.723 1177.93 547C1177.48 551.236 1181.04 555.811 1188.32 556.233C1181.07 558.884 1178.59 563.748 1177.91 568.655Z" stroke="#6B6920" stroke-width="2" stroke-miterlimit="1.5" stroke-linecap="round" stroke-linejoin="round"/>
<path fill-rule="evenodd" clip-rule="evenodd" d="M942.913 27.655C943.064 24.0965 940.735 20.5478 935.628 18.4061C933.65 17.5767 931.307 17.2748 929 17.0238C938.373 16.8239 941.628 10.7229 942.932 6C942.479 10.2359 946.04 14.8112 953.318 15.2334C946.073 17.8839 943.587 22.7476 942.913 27.655Z" stroke="#6B6920" stroke-width="2" stroke-miterlimit="1.5" stroke-linecap="round" stroke-linejoin="round"/>
<path fill-rule="evenodd" clip-rule="evenodd" d="M14.9129 166.655C15.0643 163.096 12.735 159.548 7.6278 157.406C5.65012 156.577 3.30728 156.275 1 156.024C10.3735 155.824 13.6277 149.723 14.9319 145C14.479 149.236 18.0401 153.811 25.3178 154.233C18.0731 156.884 15.5866 161.748 14.9129 166.655Z" stroke="#6B6920" stroke-width="2" stroke-miterlimit="1.5" stroke-linecap="round" stroke-linejoin="round"/>
</svg>
