<svg width="1179" height="697" viewBox="0 0 1179 697" fill="none" xmlns="http://www.w3.org/2000/svg">
<path d="M1140.5 348.5C1140.5 428.723 1079.92 501.465 981.722 554.181C883.545 606.886 747.879 639.5 598 639.5C448.121 639.5 312.455 606.886 214.278 554.181C116.079 501.465 55.5 428.723 55.5 348.5C55.5 268.277 116.079 195.535 214.278 142.819C312.455 90.114 448.121 57.5 598 57.5C747.879 57.5 883.545 90.114 981.722 142.819C1079.92 195.535 1140.5 268.277 1140.5 348.5Z" fill="#101B13" fill-opacity="0.75" stroke="#89872B"/>
<path d="M1178.5 348.5C1178.5 444.487 1112.69 531.477 1006.08 594.496C899.496 657.509 752.212 696.5 589.5 696.5C426.788 696.5 279.504 657.509 172.915 594.496C66.3149 531.477 0.5 444.487 0.5 348.5C0.5 252.513 66.3149 165.523 172.915 102.504C279.504 39.4906 426.788 0.5 589.5 0.5C752.212 0.5 899.496 39.4906 1006.08 102.504C1112.69 165.523 1178.5 252.513 1178.5 348.5Z" stroke="#89872B"/>
</svg>
